<svg id="Capa_1" data-name="Capa 1" xmlns="http://www.w3.org/2000/svg" viewBox="0 0 30.3 30.3"><defs><style>.cls-1{fill:#fff;}</style></defs><title>iconos</title><path class="cls-1" d="M15.15,30.3A15.15,15.15,0,1,1,30.3,15.15,15.17,15.17,0,0,1,15.15,30.3Zm0-29.3A14.15,14.15,0,1,0,29.3,15.15,14.17,14.17,0,0,0,15.15,1Z"/><path class="cls-1" d="M24.13,11a7,7,0,0,1-2,.55,3.52,3.52,0,0,0,1.54-1.94,7,7,0,0,1-2.22.85,3.51,3.51,0,0,0-6,3.19A9.94,9.94,0,0,1,8.25,10,3.51,3.51,0,0,0,9.33,14.7a3.48,3.48,0,0,1-1.59-.44v0a3.5,3.5,0,0,0,2.81,3.43A3.5,3.5,0,0,1,9,17.8a3.51,3.51,0,0,0,3.27,2.43,7.09,7.09,0,0,1-5.19,1.45A10,10,0,0,0,22.39,13.3c0-.15,0-.3,0-.45A7.11,7.11,0,0,0,24.13,11Zm0,0"/></svg>