<svg id="Capa_1" data-name="Capa 1" xmlns="http://www.w3.org/2000/svg" viewBox="0 0 30.3 30.3"><defs><style>.cls-1{fill:#fff;}</style></defs><title>iconos</title><path class="cls-1" d="M15.15,30.3A15.15,15.15,0,1,1,30.3,15.15,15.17,15.17,0,0,1,15.15,30.3Zm0-29.3A14.15,14.15,0,1,0,29.3,15.15,14.17,14.17,0,0,0,15.15,1Z"/><path class="cls-1" d="M20.05,9.22h-9.8A3.48,3.48,0,0,0,6.77,12.7v4.9a3.48,3.48,0,0,0,3.48,3.48h9.8a3.48,3.48,0,0,0,3.48-3.48V12.7a3.48,3.48,0,0,0-3.48-3.48ZM17.7,15.39l-4.59,2.19a.18.18,0,0,1-.26-.17V12.9a.18.18,0,0,1,.27-.16l4.59,2.32a.18.18,0,0,1,0,.33Zm0,0"/></svg>